<svg width="135" height="40" viewBox="0 0 135 40" fill="none" xmlns="http://www.w3.org/2000/svg">
<path fill-rule="evenodd" clip-rule="evenodd" d="M21.7961 39.1883V22.2177H27.1989V39.1883H21.7961ZM24.503 20.24C23.7443 20.24 23.0925 19.9895 22.5474 19.4886C22.0023 18.9804 21.7298 18.3691 21.7298 17.6546C21.7298 16.9475 22.0023 16.3435 22.5474 15.8426C23.0925 15.3344 23.7443 15.0803 24.503 15.0803C25.2691 15.0803 25.9209 15.3344 26.4586 15.8426C27.0037 16.3435 27.2762 16.9475 27.2762 17.6546C27.2762 18.3691 27.0037 18.9804 26.4586 19.4886C25.9209 19.9895 25.2691 20.24 24.503 20.24ZM80.9227 39.1883V22.2177H86.3254V39.1883H80.9227ZM83.6296 20.24C82.8709 20.24 82.219 19.9895 81.674 19.4886C81.1289 18.9804 80.8564 18.3691 80.8564 17.6546C80.8564 16.9475 81.1289 16.3435 81.674 15.8426C82.219 15.3344 82.8709 15.0803 83.6296 15.0803C84.3956 15.0803 85.0475 15.3344 85.5852 15.8426C86.1302 16.3435 86.4028 16.9475 86.4028 17.6546C86.4028 18.3691 86.1302 18.9804 85.5852 19.4886C85.0475 19.9895 84.3956 20.24 83.6296 20.24ZM109.544 22.2177V39.1883H114.947V29.1451C114.947 28.5853 115.046 28.0992 115.245 27.6867C115.451 27.2742 115.735 26.9575 116.096 26.7365C116.457 26.5082 116.873 26.394 117.344 26.394C118.044 26.394 118.608 26.6224 119.035 27.079C119.462 27.5357 119.676 28.1581 119.676 28.9462V39.1883H124.868V29.0567C124.868 28.2465 125.078 27.602 125.498 27.1232C125.925 26.6371 126.511 26.394 127.255 26.394C127.947 26.394 128.511 26.6187 128.945 27.068C129.38 27.5099 129.597 28.1544 129.597 29.0015V39.1883H135V27.764C135 25.9742 134.499 24.5673 133.497 23.5435C132.496 22.5123 131.192 21.9967 129.586 21.9967C128.334 21.9967 127.248 22.3024 126.327 22.9137C125.406 23.5177 124.787 24.3243 124.471 25.3334H124.294C124.066 24.3169 123.532 23.5067 122.692 22.9027C121.852 22.2987 120.843 21.9967 119.665 21.9967C118.501 21.9967 117.499 22.295 116.659 22.8916C115.82 23.4882 115.223 24.3022 114.869 25.3334H114.682V22.2177H109.544ZM100.713 22.2177V31.8631C100.713 32.5186 100.585 33.0784 100.327 33.5425C100.076 33.9991 99.7338 34.349 99.2992 34.5921C98.872 34.8278 98.3896 34.9456 97.8519 34.9456C97.0269 34.9456 96.375 34.6805 95.8963 34.1501C95.4175 33.6198 95.1744 32.8943 95.1671 31.9736V22.2177H89.7643V33.0342C89.7717 34.3159 90.0184 35.4355 90.5046 36.393C90.9907 37.3432 91.672 38.0834 92.5485 38.6138C93.4251 39.1441 94.4415 39.4093 95.598 39.4093C96.8722 39.4093 97.9587 39.1073 98.8573 38.5033C99.7633 37.8919 100.404 37.067 100.78 36.0284H100.957V39.1883H106.105V22.2177H100.713ZM66.6065 39.1883V29.5097C66.6138 28.8615 66.7317 28.3091 66.96 27.8524C67.1957 27.3958 67.5272 27.0459 67.9544 26.8028C68.389 26.5524 68.8898 26.4272 69.457 26.4272C70.3114 26.4272 70.978 26.6923 71.4568 27.2227C71.9429 27.753 72.1823 28.4896 72.175 29.4324V39.1883H77.5777V28.3717C77.5851 27.0974 77.342 25.9852 76.8485 25.035C76.3624 24.0775 75.6774 23.3336 74.7935 22.8032C73.917 22.2655 72.8821 21.9967 71.6888 21.9967C70.4366 21.9967 69.3576 22.295 68.4516 22.8916C67.5456 23.4809 66.9048 24.2948 66.5291 25.3334H66.3413V22.2177H61.2037V39.1883H66.6065ZM47.7576 39.4756C46.6748 39.4756 45.7136 39.2951 44.8739 38.9342C44.0415 38.5659 43.3823 38.0135 42.8962 37.2769C42.4174 36.5329 42.178 35.6012 42.178 34.4816C42.178 33.5388 42.3437 32.7433 42.6752 32.0951C43.0067 31.4469 43.4633 30.9203 44.0452 30.5151C44.6271 30.11 45.2974 29.8044 46.0561 29.5981C46.8147 29.3845 47.625 29.2409 48.4868 29.1672C49.4517 29.0788 50.2288 28.9868 50.818 28.891C51.4073 28.7879 51.8345 28.6443 52.0997 28.4601C52.3722 28.2686 52.5085 27.9998 52.5085 27.6536V27.5983C52.5085 27.0312 52.3133 26.5929 51.9229 26.2835C51.5325 25.9742 51.0058 25.8195 50.3429 25.8195C49.6285 25.8195 49.0539 25.9742 48.6194 26.2835C48.1848 26.5929 47.9086 27.0201 47.7907 27.5652L42.8078 27.3884C42.9551 26.3572 43.3344 25.4365 43.9458 24.6262C44.5645 23.8087 45.4116 23.1678 46.487 22.7038C47.5697 22.2324 48.8698 21.9967 50.3871 21.9967C51.4699 21.9967 52.4679 22.1256 53.3813 22.3834C54.2946 22.6338 55.0901 23.0021 55.7678 23.4882C56.4454 23.967 56.9684 24.5563 57.3367 25.256C57.7123 25.9558 57.9002 26.7549 57.9002 27.6536V39.1883H52.8178V36.8239H52.6852C52.3832 37.3984 51.9965 37.8846 51.5251 38.2823C51.0611 38.6801 50.5123 38.9784 49.8789 39.1772C49.2528 39.3761 48.5457 39.4756 47.7576 39.4756ZM49.4259 35.94C50.0078 35.94 50.5308 35.8222 50.9948 35.5865C51.4662 35.3508 51.8419 35.0267 52.1217 34.6142C52.4016 34.1943 52.5416 33.7082 52.5416 33.1558V31.5427C52.3869 31.6237 52.1991 31.6973 51.9781 31.7636C51.7645 31.8299 51.5288 31.8925 51.271 31.9515C51.0132 32.0104 50.748 32.062 50.4755 32.1061C50.203 32.1503 49.9415 32.1909 49.6911 32.2277C49.1828 32.3087 48.7482 32.4339 48.3873 32.6033C48.0338 32.7727 47.7612 32.9937 47.5697 33.2662C47.3856 33.5314 47.2935 33.8481 47.2935 34.2164C47.2935 34.7762 47.4924 35.2034 47.8901 35.4981C48.2953 35.7927 48.8072 35.94 49.4259 35.94ZM40.2169 26.1951V22.2177H37.1564V18.1518H31.7537V22.2177H29.5108V26.1951H31.7537V34.4484C31.7389 35.5975 31.9673 36.5514 32.4387 37.31C32.9174 38.0687 33.6061 38.6285 34.5048 38.9894C35.4107 39.343 36.4972 39.4903 37.7641 39.4314C38.4123 39.4019 38.9684 39.3319 39.4324 39.2214C39.9038 39.111 40.2684 39.0189 40.5262 38.9452L39.7086 35.0451C39.5908 35.0745 39.414 35.1114 39.1783 35.1556C38.95 35.1924 38.7327 35.2108 38.5264 35.2108C38.2392 35.2108 37.9924 35.1703 37.7862 35.0893C37.5799 35.0009 37.4216 34.8572 37.3111 34.6584C37.208 34.4521 37.1564 34.1833 37.1564 33.8518V26.1951H40.2169ZM0 16.5608V21.0023H6.87223V39.1883H12.2639V21.0023H19.1251V16.5608H0Z" fill="url(#paint0_linear_72_83)"/>
<path d="M133.596 4.7521V6.90289H127.379V4.7521H133.596ZM128.791 2.27869H131.654V11.9035C131.654 12.1679 131.694 12.374 131.775 12.5218C131.856 12.6652 131.968 12.766 132.111 12.8243C132.259 12.8825 132.429 12.9117 132.622 12.9117C132.756 12.9117 132.891 12.9005 133.025 12.8781C133.16 12.8512 133.263 12.831 133.334 12.8176L133.785 14.9482C133.641 14.993 133.44 15.0445 133.18 15.1028C132.92 15.1655 132.604 15.2036 132.232 15.217C131.542 15.2439 130.937 15.1521 130.417 14.9415C129.902 14.7309 129.501 14.4038 129.214 13.9602C128.927 13.5166 128.786 12.9565 128.791 12.2799V2.27869Z" fill="#153580"/>
<path d="M119.195 9.10739V15.0758H116.331V4.75204H119.06V6.57349H119.181C119.41 5.97306 119.793 5.49809 120.33 5.14859C120.868 4.79461 121.52 4.61761 122.286 4.61761C123.003 4.61761 123.628 4.77444 124.161 5.0881C124.695 5.40176 125.109 5.84984 125.405 6.43235C125.701 7.01037 125.849 7.70042 125.849 8.50248V15.0758H122.985V9.0133C122.99 8.3815 122.828 7.88861 122.501 7.53463C122.174 7.17616 121.724 6.99693 121.15 6.99693C120.765 6.99693 120.424 7.07982 120.129 7.24561C119.838 7.4114 119.609 7.65337 119.443 7.97151C119.282 8.28516 119.199 8.66379 119.195 9.10739Z" fill="#153580"/>
<path d="M111.174 15.0759V4.75207H114.038V15.0759H111.174ZM112.613 3.42126C112.187 3.42126 111.822 3.28012 111.517 2.99783C111.217 2.71105 111.067 2.36827 111.067 1.96948C111.067 1.57517 111.217 1.23686 111.517 0.954573C111.822 0.667801 112.187 0.524414 112.613 0.524414C113.038 0.524414 113.401 0.667801 113.702 0.954573C114.006 1.23686 114.159 1.57517 114.159 1.96948C114.159 2.36827 114.006 2.71105 113.702 2.99783C113.401 3.28012 113.038 3.42126 112.613 3.42126Z" fill="#153580"/>
<path d="M103.43 15.0759V4.75205H106.206V6.55334H106.313C106.501 5.91259 106.817 5.42866 107.261 5.10156C107.705 4.76998 108.215 4.60419 108.793 4.60419C108.937 4.60419 109.091 4.61315 109.257 4.63107C109.423 4.649 109.569 4.67364 109.694 4.70501V7.24563C109.56 7.2053 109.374 7.16946 109.136 7.13809C108.899 7.10672 108.681 7.09104 108.484 7.09104C108.063 7.09104 107.687 7.1829 107.355 7.36661C107.028 7.54584 106.768 7.79677 106.575 8.11939C106.387 8.44201 106.293 8.81392 106.293 9.23511V15.0759H103.43Z" fill="#153580"/>
<path d="M91.2292 15.0759V1.31079H96.6599C97.7039 1.31079 98.5934 1.51019 99.3282 1.90898C100.063 2.30329 100.623 2.85219 101.009 3.55568C101.398 4.25469 101.593 5.06124 101.593 5.97532C101.593 6.88941 101.396 7.69596 101.002 8.39496C100.608 9.09397 100.036 9.63839 99.2879 10.0282C98.5441 10.4181 97.6434 10.613 96.586 10.613H93.1245V8.2807H96.1155C96.6756 8.2807 97.1371 8.18437 97.5001 7.99169C97.8675 7.79454 98.1408 7.52345 98.3201 7.17842C98.5038 6.82892 98.5956 6.42789 98.5956 5.97532C98.5956 5.51828 98.5038 5.11949 98.3201 4.77894C98.1408 4.43392 97.8675 4.16731 97.5001 3.97912C97.1326 3.78644 96.6666 3.69011 96.102 3.69011H94.1394V15.0759H91.2292Z" fill="#153580"/>
<defs>
<linearGradient id="paint0_linear_72_83" x1="0" y1="27.2779" x2="153.231" y2="48.7493" gradientUnits="userSpaceOnUse">
<stop stop-color="#5B8BFF"/>
<stop offset="1" stop-color="#375399"/>
</linearGradient>
</defs>
</svg>
